<svg width="1449" height="97" viewBox="0 0 1449 97" fill="none" xmlns="http://www.w3.org/2000/svg">
<g filter="url(#filter0_d_24_657)">
<path d="M701.338 55.912C701.163 55.7424 701.025 55.5396 700.93 55.3157C700.836 55.0917 700.787 54.8511 700.787 54.608C700.787 54.3649 700.836 54.1242 700.93 53.9003C701.025 53.6763 701.163 53.4735 701.338 53.304C701.695 52.9563 702.173 52.7617 702.672 52.7617C703.17 52.7617 703.649 52.9563 704.006 53.304L723.998 72.796L743.994 53.304C744.173 53.1285 744.386 52.9901 744.619 52.8968C744.852 52.8034 745.101 52.7569 745.352 52.7599C745.603 52.7628 745.851 52.8153 746.082 52.9141C746.313 53.0129 746.522 53.1563 746.698 53.336C746.865 53.5071 746.997 53.7095 747.086 53.9317C747.174 54.1538 747.219 54.3913 747.216 54.6306C747.213 54.8699 747.163 55.1062 747.068 55.3261C746.974 55.5459 746.837 55.745 746.666 55.912L725.394 76.64C725.02 77.004 724.519 77.2078 723.998 77.2078C723.476 77.2078 722.975 77.004 722.602 76.64L701.338 55.912V55.912ZM701.338 39.912C701.163 39.7424 701.025 39.5396 700.93 39.3157C700.836 39.0917 700.787 38.8511 700.787 38.608C700.787 38.3649 700.836 38.1242 700.93 37.9003C701.025 37.6763 701.163 37.4735 701.338 37.304C701.695 36.9563 702.173 36.7617 702.672 36.7617C703.17 36.7617 703.649 36.9563 704.006 37.304L723.998 56.796L743.994 37.304C744.173 37.1285 744.386 36.9901 744.619 36.8968C744.852 36.8034 745.101 36.7569 745.352 36.7599C745.603 36.7628 745.851 36.8153 746.082 36.9141C746.313 37.0129 746.522 37.1563 746.698 37.336C746.865 37.5071 746.997 37.7095 747.086 37.9317C747.174 38.1538 747.219 38.3913 747.216 38.6306C747.213 38.8699 747.163 39.1062 747.068 39.3261C746.974 39.5459 746.837 39.745 746.666 39.912L725.394 60.64C725.02 61.004 724.519 61.2078 723.998 61.2078C723.476 61.2078 722.975 61.004 722.602 60.64L701.338 39.912V39.912Z" fill="#EE6C4D"/>
<path d="M704.879 26.082C704.732 25.9389 704.615 25.7678 704.535 25.5788C704.456 25.3899 704.414 25.1868 704.414 24.9817C704.414 24.7766 704.456 24.5736 704.535 24.3846C704.615 24.1956 704.732 24.0245 704.879 23.8815C705.18 23.5881 705.584 23.4239 706.004 23.4239C706.425 23.4239 706.829 23.5881 707.13 23.8815L723.998 40.3278L740.87 23.8815C741.021 23.7334 741.201 23.6167 741.397 23.5379C741.594 23.4591 741.804 23.4199 742.016 23.4224C742.228 23.4249 742.437 23.4691 742.632 23.5525C742.827 23.6359 743.003 23.7569 743.151 23.9085C743.292 24.0528 743.404 24.2237 743.479 24.4111C743.554 24.5985 743.591 24.7989 743.588 25.0008C743.586 25.2027 743.544 25.4021 743.464 25.5876C743.384 25.7731 743.269 25.9411 743.124 26.082L725.176 43.5712C724.861 43.8784 724.438 44.0503 723.998 44.0503C723.558 44.0503 723.135 43.8784 722.82 43.5712L704.879 26.082V26.082ZM704.879 12.582C704.732 12.4389 704.615 12.2678 704.535 12.0788C704.456 11.8899 704.414 11.6868 704.414 11.4817C704.414 11.2766 704.456 11.0736 704.535 10.8846C704.615 10.6956 704.732 10.5245 704.879 10.3815C705.18 10.0881 705.584 9.92392 706.004 9.92392C706.425 9.92392 706.829 10.0881 707.13 10.3815L723.998 26.8278L740.87 10.3815C741.021 10.2334 741.201 10.1167 741.397 10.0379C741.594 9.95913 741.804 9.91988 742.016 9.92239C742.228 9.92489 742.437 9.96911 742.632 10.0525C742.827 10.1359 743.003 10.2569 743.151 10.4085C743.292 10.5528 743.404 10.7237 743.479 10.9111C743.554 11.0985 743.591 11.2989 743.588 11.5008C743.586 11.7027 743.544 11.9021 743.464 12.0876C743.384 12.2731 743.269 12.4411 743.124 12.582L725.176 30.0712C724.861 30.3784 724.438 30.5503 723.998 30.5503C723.558 30.5503 723.135 30.3784 722.82 30.0712L704.879 12.582V12.582Z" fill="#EE6C4D"/>
<line x1="4" y1="44.5" x2="668.003" y2="44.5" stroke="#EE6C4D"/>
<line x1="780" y1="45.5" x2="1444" y2="45.5" stroke="#EE6C4D"/>
</g>
<defs>
<filter id="filter0_d_24_657" x="0" y="0" width="1448" height="97" filterUnits="userSpaceOnUse" color-interpolation-filters="sRGB">
<feFlood flood-opacity="0" result="BackgroundImageFix"/>
<feColorMatrix in="SourceAlpha" type="matrix" values="0 0 0 0 0 0 0 0 0 0 0 0 0 0 0 0 0 0 127 0" result="hardAlpha"/>
<feOffset dy="4"/>
<feGaussianBlur stdDeviation="2"/>
<feComposite in2="hardAlpha" operator="out"/>
<feColorMatrix type="matrix" values="0 0 0 0 0 0 0 0 0 0 0 0 0 0 0 0 0 0 0.25 0"/>
<feBlend mode="normal" in2="BackgroundImageFix" result="effect1_dropShadow_24_657"/>
<feBlend mode="normal" in="SourceGraphic" in2="effect1_dropShadow_24_657" result="shape"/>
</filter>
</defs>
</svg>
