<svg width="32" height="32" viewBox="0 0 32 32" fill="none" xmlns="http://www.w3.org/2000/svg">
<g clip-path="url(#clip0_5_536)">
<path d="M16 0C24.8 0 32 7.2 32 16C32 24.8 24.8 32 16 32C7.2 32 0 24.8 0 16C0 7.2 7.2 0 16 0ZM12.8 21.3C13 22.2 13 23 12.8 23.7L12.7 24C12.7 24.1 12.6 24.2 12.6 24.2C12.4 24.6 12.2 24.9 11.9 25.3C11 26.3 9.7 26.7 9.1 26.4C8.5 26.1 8.8 24.6 9.9 23.5C11.1 22.3 12.7 21.5 12.7 21.5L12.8 21.3ZM26 6.8C25.3 4 20.6 3 16.1 4.6C13.5 5.6 10.6 7.1 8.5 9C6 11.3 5.7 13.3 5.8 14.1C6.4 17 10.4 19 12.1 20.4C11.6 20.6 8 22.4 7.2 24.3C6.3 26.3 7.3 27.7 8 27.8C10.1 28.4 12.3 27.3 13.4 25.6C14.5 23.9 14.4 21.8 13.9 20.7C14.6779 20.4598 15.5048 20.4253 16.3 20.6C19.1 20.9 19.7 22.7 19.5 23.4C19.3 24.1 18.8 24.5 18.6 24.7C18.4 24.8 18.3 24.9 18.4 24.9C18.4 25 18.5 25 18.7 25C18.9 25 20.2 24.4 20.2 23C20.3 21.3 18.6 19.4 15.7 19.4C14.5 19.4 13.7 19.5 13.2 19.7C13.2 19.6 13.1 19.6 13.1 19.6C11.3 17.7 8 16.3 8.1 13.7C8.1 12.8 8.5 10.3 14.5 7.3C19.4 4.8 23.4 5.5 24.1 7C25.1 9.1 22 13.1 16.9 13.7C14.9 13.9 13.9 13.2 13.7 12.9C13.4 12.6 13.4 12.6 13.3 12.6C13.1 12.7 13.2 12.9 13.3 13.1C13.5 13.5 14.1 14.2 15.2 14.6C16.1 14.9 18.4 15.1 21.2 14C24.3 12.8 26.7 9.5 26 6.7V6.8Z" fill="white"/>
</g>
<defs>
<clipPath id="clip0_5_536">
<rect width="32" height="32" fill="white"/>
</clipPath>
</defs>
</svg>
