<svg width="32" height="32" viewBox="0 0 32 32" fill="none" xmlns="http://www.w3.org/2000/svg">
<g clip-path="url(#clip0_5_538)">
<path d="M10.0027 0H13.44V1.43733H11.44V2.87467H13.44V4.312H10.0027V0ZM14.1267 0H17.5653V1.25067H15.5653V1.5H17.5653V4.37467H14.1267V3.06267H16.1267V2.812H14.1267V0ZM18.2533 0H21.6893V1.25067H19.6893V1.5H21.6893V4.37467H18.2533V3.06267H20.2533V2.812H18.2533V0Z" fill="white"/>
<path fill-rule="evenodd" clip-rule="evenodd" d="M15.988 32L6.72933 29.4293L4 6.28931H28L25.272 29.4266L15.988 32ZM9.396 16.764L9.65067 19.6013H19.4867L19.1573 23.2813L15.992 24.1373H15.9893L12.8293 23.284L12.6267 21.0213H9.77733L10.1747 25.4773L15.988 27.0906L21.8107 25.4773L22.52 17.5253L22.5893 16.764L23.1013 11.0186H8.88533L9.144 13.8573H19.992L19.7333 16.764H9.396Z" fill="white"/>
</g>
<defs>
<clipPath id="clip0_5_538">
<rect width="32" height="32" fill="white"/>
</clipPath>
</defs>
</svg>
