<svg width="32" height="32" viewBox="0 0 32 32" fill="none" xmlns="http://www.w3.org/2000/svg">
<path d="M32 15.5853C32 13.4653 29.3453 11.456 25.2747 10.2106C26.2147 6.06265 25.7973 2.76131 23.9573 1.70398C23.5115 1.45427 23.0069 1.32858 22.496 1.33998V2.79331C22.796 2.79331 23.0373 2.85331 23.24 2.96398C24.1267 3.47331 24.512 5.40931 24.212 7.90131C24.14 8.51465 24.0227 9.15998 23.8787 9.81865C22.5155 9.49016 21.132 9.25275 19.7373 9.10798C18.9065 7.9617 18 6.87217 17.024 5.84665C19.1507 3.87065 21.1467 2.78798 22.504 2.78798V1.33331C20.7093 1.33331 18.3613 2.61198 15.9867 4.82931C13.6133 2.62665 11.264 1.35998 9.47067 1.35998V2.81331C10.8213 2.81331 12.824 3.89065 14.9507 5.85331C14.0373 6.81331 13.124 7.90131 12.256 9.10798C10.8584 9.25114 9.47247 9.49083 8.108 9.82531C7.9638 9.20103 7.85033 8.57005 7.768 7.93465C7.46133 5.44131 7.84 3.50531 8.72133 2.99065C8.916 2.87331 9.17067 2.81998 9.47067 2.81998V1.36665C8.924 1.36665 8.42667 1.48398 7.99733 1.73065C6.164 2.78798 5.75333 6.08131 6.69867 10.2173C2.64133 11.4706 0 13.472 0 15.5853C0 17.7053 2.65467 19.7146 6.72533 20.9586C5.78533 25.108 6.20267 28.4093 8.04267 29.4653C8.46667 29.7133 8.96267 29.8306 9.50933 29.8306C11.304 29.8306 13.652 28.552 16.0267 26.3346C18.4 28.5386 20.748 29.804 22.5427 29.804C23.0575 29.8149 23.5659 29.6888 24.016 29.4386C25.8493 28.3826 26.26 25.0893 25.3147 20.9533C29.3587 19.708 32 17.6986 32 15.5853ZM23.5067 11.2346C23.2533 12.1065 22.9597 12.966 22.6267 13.8106C22.0815 12.7503 21.483 11.7183 20.8333 10.7186C21.76 10.856 22.6533 11.0253 23.508 11.2346H23.5067ZM20.52 18.1813C20.0316 19.0339 19.5072 19.8654 18.948 20.6733C16.991 20.8458 15.0227 20.848 13.0653 20.68C11.9426 19.0762 10.9607 17.3783 10.1307 15.6053C10.9594 13.8281 11.9372 12.1243 13.0533 10.512C15.0099 10.3391 16.9777 10.3365 18.9347 10.504C19.476 11.28 20.0053 12.1093 20.5133 12.984C21.0093 13.8373 21.46 14.704 21.8707 15.5786C21.4554 16.4639 21.0049 17.3322 20.52 18.1813V18.1813ZM22.6267 17.3333C22.9787 18.2066 23.28 19.0813 23.5267 19.9293C22.6733 20.1386 21.772 20.3146 20.84 20.4506C21.487 19.4419 22.0833 18.4015 22.6267 17.3333V17.3333ZM16.0133 24.2933C15.4067 23.6666 14.8 22.9693 14.2 22.2053C14.7867 22.232 15.3867 22.252 15.9933 22.252C16.6067 22.252 17.2133 22.2386 17.8067 22.2053C17.22 22.9693 16.6133 23.6666 16.0133 24.2933ZM11.16 20.4506C10.261 20.3204 9.36848 20.1486 8.48533 19.936C8.72667 19.0946 9.02667 18.2266 9.36533 17.36C9.63333 17.88 9.91467 18.4026 10.2213 18.9253C10.528 19.4466 10.84 19.956 11.16 20.4506ZM15.98 6.87731C16.5867 7.50398 17.1933 8.20131 17.7933 8.96531C17.2067 8.93865 16.6067 8.91865 16 8.91865C15.3867 8.91865 14.78 8.93198 14.1867 8.96531C14.7733 8.20131 15.38 7.50398 15.98 6.87731ZM11.1533 10.72C10.5065 11.7266 9.9102 12.7647 9.36667 13.8306C9.02429 12.9806 8.72392 12.1142 8.46667 11.2346C9.32 11.032 10.2213 10.856 11.1533 10.72ZM5.25067 18.8853C2.94133 17.9013 1.448 16.6093 1.448 15.5853C1.448 14.5613 2.94133 13.2626 5.25067 12.2853C5.81067 12.044 6.424 11.828 7.05733 11.6266C7.42933 12.904 7.91867 14.2346 8.524 15.5986C7.95249 16.8816 7.46914 18.202 7.07733 19.5506C6.45793 19.3589 5.84831 19.1368 5.25067 18.8853V18.8853ZM8.76 28.2053C7.87333 27.6986 7.488 25.76 7.788 23.2693C7.86 22.656 7.97733 22.0093 8.12133 21.3506C9.39867 21.664 10.7947 21.9053 12.2627 22.0626C13.0936 23.2089 14 24.2984 14.976 25.324C12.8493 27.3 10.8533 28.3826 9.496 28.3826C9.23992 28.3854 8.98711 28.325 8.76 28.2066V28.2053ZM24.232 23.236C24.5387 25.728 24.16 27.6653 23.2787 28.18C23.084 28.2973 22.8293 28.3493 22.5293 28.3493C21.1787 28.3493 19.176 27.2733 17.0493 25.3093C18.0212 24.2881 18.9216 23.201 19.744 22.056C21.1416 21.9128 22.5275 21.6731 23.892 21.3386C24.0427 21.9973 24.1587 22.6293 24.232 23.236V23.236ZM26.7427 18.8853C26.1827 19.1266 25.5693 19.3426 24.936 19.544C24.5373 18.1884 24.0473 16.8614 23.4693 15.572C24.0693 14.216 24.5507 12.892 24.916 11.62C25.5374 11.8124 26.1492 12.0344 26.7493 12.2853C29.0587 13.2693 30.552 14.5613 30.552 15.5853C30.5453 16.6093 29.052 17.908 26.7427 18.8853V18.8853Z" fill="white"/>
<path d="M15.9933 18.5667C16.784 18.5667 17.5423 18.2526 18.1014 17.6935C18.6606 17.1344 18.9747 16.376 18.9747 15.5853C18.9747 14.7946 18.6606 14.0363 18.1014 13.4772C17.5423 12.9181 16.784 12.604 15.9933 12.604C15.2026 12.604 14.4443 12.9181 13.8852 13.4772C13.3261 14.0363 13.012 14.7946 13.012 15.5853C13.012 16.376 13.3261 17.1344 13.8852 17.6935C14.4443 18.2526 15.2026 18.5667 15.9933 18.5667V18.5667Z" fill="white"/>
</svg>
