<svg width="32" height="32" viewBox="0 0 32 32" fill="none" xmlns="http://www.w3.org/2000/svg">
<g clip-path="url(#clip0_5_548)">
<path d="M15.8853 0C7.76 0 8.26667 3.54133 8.26667 3.54133L8.276 7.21067H16.028V8.312H5.2C5.2 8.312 0 7.71867 0 15.9587C0 24.1987 4.53733 23.9053 4.53733 23.9053H7.244V20.0827C7.244 20.0827 7.09867 15.5227 11.7107 15.5227H19.3987C19.3987 15.5227 23.7187 15.592 23.7187 11.3253V4.26933C23.7187 4.26933 24.3733 0 15.884 0H15.8853ZM11.6107 2.46667C12.3813 2.46667 13.0053 3.09333 13.0053 3.86933C13.0053 4.644 12.3813 5.27067 11.6107 5.27067C10.8387 5.27067 10.216 4.644 10.216 3.86933C10.216 3.09333 10.8387 2.46667 11.6107 2.46667Z" fill="white"/>
<path d="M16.116 32C24.2387 32 23.732 28.4587 23.732 28.4587L23.7227 24.7893H15.9707V23.688H26.8013C26.8013 23.688 32.0013 24.2813 32.0013 16.0413C32.0013 7.80135 27.4627 8.09468 27.4627 8.09468H24.756V11.9173C24.756 11.9173 24.9013 16.4773 20.2893 16.4773H12.6027C12.6027 16.4773 8.28266 16.408 8.28266 20.6747V27.7307C8.28266 27.7307 7.62666 32 16.116 32ZM20.3907 29.5333C19.6187 29.5333 18.996 28.9067 18.996 28.1307C18.996 27.356 19.6187 26.7293 20.3907 26.7293C21.1613 26.7293 21.7853 27.356 21.7853 28.1307C21.7853 28.9067 21.1613 29.5333 20.3907 29.5333Z" fill="white"/>
</g>
<defs>
<clipPath id="clip0_5_548">
<rect width="32" height="32" fill="white"/>
</clipPath>
</defs>
</svg>
