<svg width="32" height="32" viewBox="0 0 32 32" fill="none" xmlns="http://www.w3.org/2000/svg">
<path d="M6.77333 0H8.216V1.42533H9.536V0H10.9787V4.31467H9.536V2.87067H8.216V4.31467H6.77466V0H6.77333ZM12.8747 1.43067H11.6053V0H15.588V1.43067H14.3173V4.31467H12.8747V1.43067ZM16.22 0H17.724L18.6493 1.516L19.5733 0H21.0773V4.31467H19.6413V2.176L18.6493 3.71067H18.624L17.6307 2.17733V4.31467H16.22V0ZM21.7947 0H23.2387V2.88933H25.2653V4.316H21.7947V0Z" fill="white"/>
<path fill-rule="evenodd" clip-rule="evenodd" d="M6.728 29.4293L4 6.28931H28L25.2707 29.4266L15.9867 32L6.728 29.4293ZM12.244 16.7626L11.9853 13.856H22.8453L23.0987 11.0186H8.88533L9.65067 19.6013H19.4867L19.1573 23.2813L15.992 24.1373H15.9893L12.8293 23.284L12.6267 21.0213H9.776L10.1733 25.4773L15.9867 27.0906L21.8093 25.4773L22.5187 17.5253L22.588 16.764H12.244V16.7626Z" fill="white"/>
</svg>
