<svg width="32" height="32" viewBox="0 0 32 32" fill="none" xmlns="http://www.w3.org/2000/svg">
<g clip-path="url(#clip0_5_546)">
<path fill-rule="evenodd" clip-rule="evenodd" d="M0 0H32V32H0V0ZM24.4627 26.8267C22.9787 26.8267 22.14 26.0533 21.496 25L19.052 26.42C19.9347 28.164 21.7387 29.4947 24.532 29.4947C27.388 29.4947 29.5147 28.012 29.5147 25.304C29.5147 22.7933 28.072 21.6773 25.5173 20.58L24.7653 20.2587C23.4747 19.6987 22.916 19.3347 22.916 18.432C22.916 17.7027 23.476 17.144 24.356 17.144C25.2187 17.144 25.7747 17.508 26.2907 18.432L28.632 16.9293C27.6413 15.1867 26.268 14.5213 24.356 14.5213C21.6707 14.5213 19.952 16.2387 19.952 18.4947C19.952 20.9413 21.392 22.1 23.5627 23.024L24.3147 23.3467C25.6867 23.9467 26.504 24.312 26.504 25.3427C26.504 26.204 25.708 26.8267 24.4627 26.8267ZM12.8093 26.8067C11.776 26.8067 11.3453 26.1 10.8733 25.26L8.42533 26.7427C9.13467 28.244 10.5293 29.4893 12.936 29.4893C15.6013 29.4893 17.4267 28.072 17.4267 24.9587V14.692H14.42V24.9187C14.42 26.4213 13.796 26.8067 12.808 26.8067H12.8093Z" fill="white"/>
</g>
<defs>
<clipPath id="clip0_5_546">
<rect width="32" height="32" fill="white"/>
</clipPath>
</defs>
</svg>
