<svg width="32" height="32" viewBox="0 0 32 32" fill="none" xmlns="http://www.w3.org/2000/svg">
<path d="M20.4427 11.5573C21.5977 11.5227 22.6938 11.0395 23.4985 10.2102C24.3033 9.38098 24.7534 8.27088 24.7534 7.11534C24.7534 5.9598 24.3033 4.8497 23.4985 4.02045C22.6938 3.19119 21.5977 2.708 20.4427 2.67334H11.5573C10.4023 2.708 9.30622 3.19119 8.50148 4.02045C7.69674 4.8497 7.24665 5.9598 7.24665 7.11534C7.24665 8.27088 7.69674 9.38098 8.50148 10.2102C9.30622 11.0395 10.4023 11.5227 11.5573 11.5573C10.3922 11.5775 9.28165 12.0545 8.46483 12.8856C7.64801 13.7167 7.19031 14.8354 7.19031 16.0007C7.19031 17.166 7.64801 18.2846 8.46483 19.1157C9.28165 19.9468 10.3922 20.4238 11.5573 20.444C10.3979 20.4724 9.29553 20.9529 8.48555 21.783C7.67558 22.6131 7.22219 23.7269 7.22219 24.8867C7.22219 26.0464 7.67558 27.1603 8.48555 27.9903C9.29553 28.8204 10.3979 29.3009 11.5573 29.3293C12.7356 29.3286 13.8654 28.8602 14.6985 28.0269C15.5315 27.1936 15.9996 26.0636 16 24.8853V11.5573H20.4427Z" fill="white"/>
<path d="M20.4427 20.4426C22.8963 20.4426 24.8853 18.4536 24.8853 16C24.8853 13.5464 22.8963 11.5573 20.4427 11.5573C17.989 11.5573 16 13.5464 16 16C16 18.4536 17.989 20.4426 20.4427 20.4426Z" fill="white"/>
</svg>
